PathFileType	4	(X/Y/Z)	TVC_60_BWA01_walk_RCNL2025.trc
DataRate	CameraRate	NumFrames	NumMarkers	Units	OrigDataRate	OrigDataStartFrame	OrigNumFrames
100	100	9	27	mm	100	289	384
Frame#	Time	R_Shoulder			L_Shoulder			C7			J_Notch			R_Elbow			L_Elbow			R_Wrist			L_Wrist			R_Asis			L_Asis			R_Psis			L_Psis			Sacral			Thoracic			Sternum			R_Thigh_Lateral			R_Knee_Lateral			R_Shank_Lateral			R_Ankle_Lateral			R_Heel			R_Toe			L_Thigh_Lateral			L_Knee_Lateral			L_Shank_Lateral			L_Ankle_Lateral			L_Heel			L_Toe		
		X1	Y1	Z1	X2	Y2	Z2	X3	Y3	Z3	X4	Y4	Z4	X5	Y5	Z5	X6	Y6	Z6	X7	Y7	Z7	X8	Y8	Z8	X9	Y9	Z9	X10	Y10	Z10	X11	Y11	Z11	X12	Y12	Z12	X13	Y13	Z13	X14	Y14	Z14	X15	Y15	Z15	X16	Y16	Z16	X17	Y17	Z17	X18	Y18	Z18	X19	Y19	Z19	X20	Y20	Z20	X21	Y21	Z21	X22	Y22	Z22	X23	Y23	Z23	X24	Y24	Z24	X25	Y25	Z25	X26	Y26	Z26	X27	Y27	Z27
289	2.88000000	1249.385010	1299.602173	34.397053	1226.959717	1327.109009	-316.856781	1178.260132	1377.446289	-138.840271	1294.927002	1254.675415	-147.647842	1290.627686	975.463318	129.498520	1169.136963	984.901611	-365.408630	1446.063049	794.244965	125.971985	1237.799683	764.064972	-414.124329	1293.562012	894.749939	5.356646	1296.637329	891.056396	-281.242584	1115.688965	889.367188	-84.244492	1119.250488	883.415222	-194.116043	1117.469727	886.391205	-139.180267	1133.997437	1167.395508	-143.654495	1333.239746	1061.998901	-138.464798	1183.627686	587.012085	74.292282	1142.272705	429.796173	0.247113	999.324768	259.729401	22.970581	891.307983	124.736542	-54.270580	856.241455	144.613937	-104.112312	991.555847	41.752090	-65.444519	1318.456543	612.978027	-335.191010	1406.511475	445.306366	-256.030823	1406.481445	250.919174	-279.515350	1411.398193	55.580902	-198.968369	1365.512695	55.549152	-155.950958	1539.795288	41.439236	-183.913544
290	2.89000000	1258.811890	1300.694458	32.662167	1235.140869	1327.666992	-318.546600	1186.777100	1377.923462	-140.457047	1303.952393	1255.738647	-149.496490	1296.877686	976.049011	128.056625	1178.424805	985.143066	-366.620453	1450.174683	793.111084	126.067322	1247.761230	764.519897	-415.275589	1304.041748	895.106323	3.672442	1306.704956	892.600281	-282.468292	1126.107666	889.691711	-84.979469	1129.377441	884.330078	-194.969040	1127.742554	887.010895	-139.974255	1143.266724	1167.737793	-144.744278	1343.178833	1063.373047	-140.118774	1196.599609	587.001343	74.037735	1156.071777	429.273956	1.303690	1008.799316	263.238373	24.463696	897.441956	130.513733	-52.369385	863.380798	151.991898	-102.189522	993.151245	42.058315	-65.180260	1330.719727	615.600037	-337.188141	1413.900146	445.306458	-256.847260	1411.013184	250.853699	-279.938385	1412.203247	55.845486	-198.844101	1366.115234	56.111660	-155.958862	1540.399292	41.231926	-183.719162
291	2.90000000	1268.237061	1301.870972	30.942831	1243.335083	1328.286255	-320.212036	1195.289185	1378.475220	-142.066330	1312.951294	1256.850708	-151.315475	1302.993530	976.699646	126.576378	1187.750000	985.449158	-367.863770	1453.999207	791.956024	126.169121	1257.847107	765.072449	-416.471313	1314.337646	895.518188	1.983333	1316.600952	894.260010	-283.735291	1136.374878	890.069397	-85.708023	1139.357300	885.331055	-195.807205	1137.866089	887.700226	-140.757614	1152.476440	1168.178223	-145.819458	1353.013428	1064.779419	-141.730637	1209.981079	586.935120	73.816917	1170.623169	428.664490	2.407537	1019.112671	266.924377	25.986311	904.434692	136.625885	-50.529984	871.589417	159.770508	-100.351715	994.953674	42.624279	-64.909569	1342.608521	618.188538	-339.252930	1420.704224	445.266022	-257.707214	1415.044189	250.802567	-280.404480	1412.824463	56.125362	-198.757904	1366.561768	56.626064	-155.995255	1540.785522	41.241100	-183.647903
292	2.91000000	1277.635010	1303.110596	29.249565	1251.549438	1328.954590	-321.845642	1203.790771	1379.092407	-143.662781	1321.913330	1257.994263	-153.092316	1308.977539	977.404602	125.064781	1197.112549	985.811340	-369.139801	1457.551575	790.785278	126.275566	1268.053894	765.713043	-417.708588	1324.422607	895.980103	0.307769	1326.311768	895.994629	-285.038422	1146.463989	890.486450	-86.442390	1149.173096	886.393738	-196.640091	1147.818542	888.440094	-141.541241	1161.615845	1168.707764	-146.882858	1362.721924	1066.192627	-143.288467	1223.701050	586.822327	73.628654	1185.895020	427.984131	3.537422	1030.319458	270.717133	27.508366	912.342285	143.037354	-48.786484	880.908203	167.888397	-98.628380	997.050842	43.531792	-64.626785	1353.634399	620.487366	-341.239166	1426.899536	445.160217	-258.590576	1418.589233	250.732758	-280.885529	1413.280396	56.386112	-198.689819	1366.870728	57.073391	-156.042542	1540.999756	41.371422	-183.650970
293	2.92000000	1286.979980	1304.390991	27.592617	1259.790527	1329.659058	-323.440826	1212.276001	1379.765503	-145.241486	1330.828857	1259.152100	-154.815475	1314.832153	978.152649	123.529358	1206.512939	986.220703	-370.449768	1460.848022	789.604095	126.385174	1278.378052	766.431519	-418.984207	1334.274902	896.486267	-1.335259	1335.828491	897.762390	-286.369202	1156.352661	890.928772	-87.193901	1158.810303	887.493896	-197.476913	1157.581482	889.211334	-142.335407	1170.674927	1169.316162	-147.937714	1372.285400	1067.587402	-144.781372	1237.688477	586.674561	73.468430	1201.843140	427.254852	4.669634	1042.471191	274.516571	28.996202	921.206909	149.695328	-47.169815	891.348328	176.258179	-97.048088	999.572571	44.856606	-64.320534	1363.385254	622.285156	-343.018738	1432.496582	444.975800	-259.474640	1421.683960	250.622604	-281.358917	1413.595703	56.605049	-198.624115	1367.066162	57.445602	-156.087555	1541.090210	41.548424	-183.686859
294	2.93000000	1296.245972	1305.689941	25.981758	1268.063232	1330.387085	-324.991913	1220.739136	1380.484253	-146.797897	1339.688721	1260.307739	-156.474594	1320.559204	978.931946	121.977913	1215.951660	986.668091	-371.794891	1463.905823	788.417694	126.496822	1288.815186	767.217102	-420.294693	1343.878540	897.030823	-2.927212	1345.146729	899.522400	-287.716522	1166.022705	891.382690	-87.972145	1168.257202	888.608215	-198.325745	1167.139954	889.995453	-143.148945	1179.645264	1169.992310	-148.987518	1381.687378	1068.940674	-146.199631	1251.876221	586.506470	73.328964	1218.410645	426.504028	5.779232	1055.604492	278.202515	30.413565	931.053162	156.531052	-45.707104	902.888062	184.767410	-95.639961	1002.693665	46.660152	-63.970333	1371.597778	623.454102	-344.504944	1437.536865	444.709900	-260.336121	1424.379639	250.460327	-281.808502	1413.798462	56.770161	-198.549744	1367.174438	57.743717	-156.121704	1541.101562	41.719673	-183.723892
295	2.94000000	1305.407959	1306.985840	24.426060	1276.371826	1331.126709	-326.494110	1229.174683	1381.239014	-148.327896	1348.484253	1261.445679	-158.060623	1326.159912	979.730896	120.418419	1225.429565	987.144653	-373.176361	1466.742737	787.231262	126.609634	1299.360535	768.059082	-421.636307	1353.223389	897.607727	-4.451047	1354.265625	901.236877	-289.067200	1175.460571	891.835693	-88.784241	1177.504639	889.715210	-199.192734	1176.482605	890.775452	-143.988487	1188.519531	1170.724731	-150.035751	1390.914795	1070.231689	-147.534897	1266.201050	586.335815	73.200966	1235.530640	425.763794	6.841424	1069.730469	281.651337	31.723707	941.884460	163.462555	-44.420918	915.471375	193.282272	-94.433472	1006.633118	48.983208	-63.544155	1378.205811	623.970337	-345.663818	1442.086548	444.367523	-261.153809	1426.738770	250.241837	-282.224670	1413.916870	56.878372	-198.460358	1367.221680	57.975506	-156.140564	1541.071411	41.853283	-183.740997
296	2.95000000	1314.442871	1308.258179	22.933661	1284.718628	1331.867065	-327.943573	1237.577148	1382.019775	-149.827759	1357.207642	1262.551758	-159.566010	1331.635132	980.538086	118.858810	1234.947266	987.641968	-374.594940	1469.376831	786.049957	126.722996	1310.008789	768.947083	-423.005035	1362.305298	898.211304	-5.892185	1363.187012	902.872620	-290.407166	1184.657959	892.276917	-89.634285	1186.546265	890.796021	-200.081528	1185.602112	891.536469	-144.857906	1197.291870	1171.501709	-151.085709	1399.957520	1071.442871	-148.780487	1280.603516	586.183044	73.074211	1253.127197	425.070099	7.832894	1084.824951	284.757019	32.892429	953.682800	170.398102	-43.328503	929.009094	201.653595	-93.456200	1011.645996	51.841934	-62.998268	1383.355957	623.913025	-346.514801	1446.226562	443.959045	-261.910645	1428.830078	249.968567	-282.603729	1413.977417	56.933388	-198.353867	1367.231689	58.153111	-156.143433	1541.028442	41.934692	-183.727203
297	2.96000000	1323.329590	1309.488525	21.511547	1293.104370	1332.598633	-329.337219	1245.941528	1382.817017	-151.294205	1365.852051	1263.613647	-160.984680	1336.985352	981.342773	117.306824	1244.505859	988.152588	-376.051208	1471.826538	784.879150	126.836449	1320.754517	769.871429	-424.396698	1371.125488	898.836304	-7.239309	1371.914673	904.402039	-291.722412	1193.611206	892.697632	-90.523102	1195.378784	891.834473	-200.993073	1194.494995	892.266052	-145.758087	1205.957520	1172.311890	-152.140350	1408.809082	1072.560181	-149.931442	1295.026733	586.070618	72.938530	1271.118652	424.461334	8.732835	1100.824829	287.450500	33.891151	966.409912	177.238922	-42.440987	943.384033	209.723129	-92.730507	1018.008606	55.225330	-62.280548	1387.387817	623.442261	-347.120972	1450.042969	443.497437	-262.595276	1430.722900	249.645691	-282.946503	1414.002930	56.943504	-198.231720	1367.225464	58.290791	-156.132401	1540.992065	41.962410	-183.680099
